<svg xmlns="http://www.w3.org/2000/svg" viewBox="0 0 128 128">
  <rect width="128" height="128" rx="24" fill="#4F46E5"/>
  <g transform="translate(32, 32)">
    <path d="M32 8C18.745 8 8 18.745 8 32s10.745 24 24 24c4.418 0 8.556-1.195 12.109-3.281l-2.828-2.828C38.556 51.245 35.373 52 32 52c-11.046 0-20-8.954-20-20s8.954-20 20-20 20 8.954 20 20c0 3.373-.755 6.556-2.109 9.281l2.828 2.828C54.805 40.556 56 36.418 56 32c0-13.255-10.745-24-24-24z" fill="white"/>
    <path d="M52.686 45.314l-16-16c-.781-.781-2.047-.781-2.828 0l-8 8c-.781.781-.781 2.047 0 2.828s2.047.781 2.828 0L35 33.828l13.172 13.172-6.586 6.586c-.781.781-.781 2.047 0 2.828.391.391.902.586 1.414.586s1.023-.195 1.414-.586l8-8c.781-.781.781-2.047 0-2.828z" fill="white"/>
  </g>
</svg>